<svg width="785" height="785" viewBox="0 0 785 785" fill="none" xmlns="http://www.w3.org/2000/svg">
<path d="M392.5 0C176.058 0 0 176.072 0 392.5C0 608.928 176.058 785 392.5 785C608.928 785 785 608.928 785 392.5C785 176.072 608.942 0 392.5 0ZM392.5 734.765C203.775 734.765 50.2231 581.239 50.2354 392.5C50.2354 203.775 203.775 50.2354 392.5 50.2354C581.225 50.2354 734.765 203.775 734.765 392.5C734.765 581.239 581.225 734.765 392.5 734.765Z" fill="#38E8C6"/>
<path d="M152.283 584.646C232.616 587.437 311.468 596.952 387.758 612.633C387.411 509.79 387.048 406.94 386.67 304.097C293.08 288.475 196.702 280.425 99 280.546C117.51 381.837 135.26 483.205 152.283 584.646Z" fill="#38E8C6"/>
<path d="M632.821 584.646C552.493 587.437 473.638 596.952 397.352 612.633C397.698 509.79 398.061 406.94 398.435 304.097C492.029 288.475 588.407 280.425 686.107 280.546C667.595 381.837 649.851 483.205 632.821 584.646Z" fill="#38E8C6"/>
<path d="M384.861 289.651C325.46 278.494 168.072 263.875 150.644 263.172C148.528 250.882 146.404 238.594 144.271 226.306C162.616 229.626 325.41 268.77 384.861 289.651Z" fill="#77E5B4"/>
<path d="M639.241 226.306C637.119 238.546 634.997 250.789 632.891 263.032C615.465 263.742 458.627 278.285 399.473 289.358C458.681 268.603 620.902 229.626 639.241 226.306Z" fill="#77E5B4"/>
<path d="M588.54 174C586.728 190.039 584.917 206.082 583.108 222.118C519.691 237.296 458.733 256.159 400.564 278.244C400.557 278.251 400.546 278.251 400.541 278.258C400.275 278.309 400.01 278.366 399.739 278.417C457.872 240.128 520.925 205.048 588.54 174Z" fill="#AEF4D4"/>
<path d="M196.324 174C198.135 190.039 199.946 206.082 201.758 222.118C265.173 237.296 326.135 256.159 384.302 278.244C384.309 278.251 384.318 278.251 384.327 278.258C384.593 278.309 384.856 278.366 385.122 278.417C326.991 240.128 263.939 205.048 196.324 174Z" fill="#AEF4D4"/>
</svg>
