<svg width="785" height="785" viewBox="0 0 785 785" fill="none" xmlns="http://www.w3.org/2000/svg">
<path d="M392.5 0C176.058 0 0 176.072 0 392.5C0 608.928 176.058 785 392.5 785C608.928 785 785 608.928 785 392.5C785 176.072 608.942 0 392.5 0ZM392.5 734.765C203.775 734.765 50.2231 581.239 50.2354 392.5C50.2354 203.775 203.775 50.2354 392.5 50.2354C581.225 50.2354 734.765 203.775 734.765 392.5C734.765 581.239 581.225 734.765 392.5 734.765Z" fill="#38E8C6"/>
<g filter="url(#filter0_d_415_115)">
<path d="M595.15 207.543C557.97 190.483 518.101 177.914 476.414 170.716C475.655 170.577 474.897 170.924 474.506 171.618C469.378 180.738 463.699 192.636 459.721 201.987C414.885 195.275 370.279 195.275 326.362 201.987C322.384 192.428 316.498 180.738 311.347 171.618C310.956 170.947 310.198 170.6 309.439 170.716C267.776 177.891 227.906 190.46 190.703 207.543C190.381 207.682 190.105 207.913 189.922 208.214C114.298 321.195 93.5812 431.399 103.744 540.237C103.79 540.769 104.089 541.278 104.503 541.602C154.398 578.244 202.729 600.488 250.163 615.233C250.922 615.465 251.727 615.187 252.21 614.562C263.43 599.239 273.432 583.082 282.008 566.092C282.514 565.097 282.031 563.916 280.997 563.522C265.132 557.504 250.025 550.167 235.494 541.834C234.344 541.163 234.252 539.519 235.31 538.732C238.368 536.44 241.426 534.056 244.346 531.649C244.875 531.209 245.611 531.116 246.232 531.394C341.698 574.98 445.052 574.98 539.391 531.394C540.013 531.093 540.749 531.186 541.3 531.626C544.221 534.033 547.279 536.44 550.36 538.732C551.417 539.519 551.348 541.163 550.199 541.834C535.667 550.328 520.56 557.504 504.672 563.499C503.638 563.893 503.178 565.097 503.684 566.092C512.444 583.058 522.446 599.215 533.46 614.539C533.92 615.187 534.747 615.465 535.506 615.233C583.17 600.488 631.501 578.244 681.396 541.602C681.833 541.278 682.109 540.792 682.155 540.26C694.318 414.431 661.783 305.131 595.908 208.237C595.747 207.913 595.472 207.682 595.15 207.543ZM296.265 473.966C267.523 473.966 243.84 447.579 243.84 415.173C243.84 382.766 267.063 356.379 296.265 356.379C325.695 356.379 349.148 382.998 348.688 415.173C348.688 447.579 325.465 473.966 296.265 473.966ZM490.095 473.966C461.354 473.966 437.671 447.579 437.671 415.173C437.671 382.766 460.894 356.379 490.095 356.379C519.526 356.379 542.979 382.998 542.519 415.173C542.519 447.579 519.526 473.966 490.095 473.966Z" fill="#38E8C6"/>
</g>
<defs>
<filter id="filter0_d_415_115" x="39" y="43" width="708" height="708" filterUnits="userSpaceOnUse" color-interpolation-filters="sRGB">
<feFlood flood-opacity="0" result="BackgroundImageFix"/>
<feColorMatrix in="SourceAlpha" type="matrix" values="0 0 0 0 0 0 0 0 0 0 0 0 0 0 0 0 0 0 127 0" result="hardAlpha"/>
<feOffset dy="4"/>
<feGaussianBlur stdDeviation="2"/>
<feColorMatrix type="matrix" values="0 0 0 0 0 0 0 0 0 0 0 0 0 0 0 0 0 0 0.5 0"/>
<feBlend mode="normal" in2="BackgroundImageFix" result="effect1_dropShadow_415_115"/>
<feBlend mode="normal" in="SourceGraphic" in2="effect1_dropShadow_415_115" result="shape"/>
</filter>
</defs>
</svg>
